<?xml version="1.0" encoding="iso-8859-1"?>
<!-- Generator: Adobe Illustrator 18.0.0, SVG Export Plug-In . SVG Version: 6.00 Build 0)  -->
<!DOCTYPE svg PUBLIC "-//W3C//DTD SVG 1.1//EN" "http://www.w3.org/Graphics/SVG/1.1/DTD/svg11.dtd">
<svg version="1.1" id="Capa_1" xmlns="http://www.w3.org/2000/svg" xmlns:xlink="http://www.w3.org/1999/xlink" x="0px" y="0px"
	 viewBox="0 0 431.54 431.54" style="enable-background:new 0 0 431.54 431.54;" xml:space="preserve">
<path d="M431.54,112.679c0-3.495-1.357-6.777-3.822-9.243c-5.092-5.092-13.377-5.092-18.469,0l-24.169,24.169
	c-5.317-19.534-12.258-37.247-20.5-52.754h6.789c2.209,0,4-1.791,4-4s-1.791-4-4-4h-11.271
	C336.97,27.664,305.081,4.528,270.715,4.474c-0.039-0.001-144.836-0.012-144.836-0.012c-33.945,0-65.698,22.156-89.446,62.388
	H25.864c-2.209,0-4,1.791-4,4s1.791,4,4,4h6.079C11.298,113.603,0,163.243,0,215.775c0,52.528,11.298,102.163,31.942,140.915h-6.078
	c-2.209,0-4,1.791-4,4s1.791,4,4,4h10.567c23.748,40.232,55.503,62.388,89.447,62.388H270.6c0.003,0,0.006-0.002,0.01-0.002
	c33.94-0.007,65.69-22.161,89.438-62.387h11.322c2.209,0,4-1.791,4-4s-1.791-4-4-4h-6.832
	c20.648-38.752,31.947-88.388,31.947-140.914c0-19.678-1.62-39.125-4.784-57.852l36.017-36.018
	C430.196,119.427,431.554,116.145,431.54,112.679z M335.799,46.582c18.892,21.741,33.632,51.996,42.725,87.578l-5.068,5.068
	c-12.146-52.826-36.015-94.103-65.782-116.402C317.547,28.502,326.999,36.454,335.799,46.582z M127.638,215.775
	c0-54.664,12.576-104.351,32.996-140.926h16.034c-20.625,38.755-31.952,88.608-31.952,140.925
	c0,52.31,11.326,102.161,31.949,140.916h-16.034C140.213,320.118,127.638,270.435,127.638,215.775z M151.58,356.69H64.414
	C43.996,320.118,31.42,270.435,31.42,215.775c0-54.664,12.576-104.351,32.996-140.926h87.165
	c-20.645,38.753-31.943,88.393-31.943,140.926C119.638,268.304,130.935,317.939,151.58,356.69z M165.36,66.85
	c18.429-29.529,42.324-49.034,68.746-53.432c-19.917,10.023-38.083,28.242-52.948,53.432H165.36z M149.299,12.462h61.58
	c-20.584,9.761-39.385,28.259-54.808,54.388H69.142C90.191,33.123,118.37,12.462,149.299,12.462z M111.686,13.94
	C92.265,24.032,74.531,41.986,59.854,66.85H45.723C63.503,38.366,86.371,19.204,111.686,13.94z M8,215.775
	C8,161.108,20.579,111.422,41.002,74.85h14.361C34.718,113.603,23.42,163.243,23.42,215.775c0,52.528,11.298,102.163,31.942,140.915
	H41C20.578,320.121,8,270.438,8,215.775z M45.721,364.69h14.131c14.673,24.858,32.402,42.814,51.818,52.906
	C86.361,412.329,63.498,393.169,45.721,364.69z M149.299,419.078c-30.929,0-59.109-20.661-80.159-54.388h86.929
	c15.423,26.129,34.225,44.626,54.809,54.388H149.299z M165.358,364.69h15.797c14.857,25.181,33.015,43.398,52.923,53.428
	C207.666,413.711,183.781,394.209,165.358,364.69z M263.329,418.689c-27.209-2.88-52.796-21.938-72.815-53.999h5.223
	c2.209,0,4-1.791,4-4s-1.791-4-4-4h-9.957c-0.079-0.141-0.159-0.277-0.238-0.418c-21.168-38.057-32.826-87.953-32.826-140.498
	c0-52.566,11.665-102.477,32.846-140.537c0.073-0.131,0.148-0.257,0.221-0.388h9.955c2.209,0,4-1.791,4-4s-1.791-4-4-4h-5.22
	c20.031-32.076,45.635-51.131,72.858-53.991c23.02,2.457,44.971,16.485,63.505,40.602c18.287,23.795,32.038,55.745,39.861,92.482
	l-62.574,62.574c-10.704-6.214-21.784-6.741-28.083-0.443l-14.429,14.429c-8.4,8.4-4.66,25.302,8.517,38.478
	c8.14,8.141,18.106,13,26.66,13c4.792,0,8.873-1.546,11.805-4.472c0.004-0.004,14.442-14.44,14.442-14.44
	c6.299-6.298,5.771-17.377-0.444-28.081l49.221-49.222c1.377,12.489,2.085,25.235,2.085,38.01c0,52.54-11.656,102.433-32.82,140.486
	C320.463,393.405,292.847,415.557,263.329,418.689z M300.134,231.019c-6.995-6.996-15.338-11.559-22.976-12.706l4.583-4.583
	c5.497-5.493,18.726,0.079,27.164,8.517c8.438,8.439,14.013,21.671,8.519,27.165l-4.586,4.586
	C311.724,246.557,307.347,238.231,300.134,231.019z M302.994,263.84c-1.421,1.42-3.493,2.14-6.161,2.14
	c-6.382,0-14.431-4.083-21.004-10.656c-8.438-8.438-14.011-21.67-8.517-27.164c1.42-1.421,3.493-2.141,6.161-2.141
	c6.383,0,14.431,4.083,21.004,10.656C302.916,245.113,308.488,258.345,302.994,263.84z M307.321,408.962
	c15.262-11.365,29.132-27.847,40.792-48.814c21.815-39.223,33.829-90.496,33.829-144.374c0-15.227-0.978-30.422-2.889-45.206
	l5.672-5.672c2.492,16.541,3.759,33.617,3.759,50.878C388.484,305.769,354.397,382.28,307.321,408.962z M422.062,116.248
	L317.975,220.335c-1.056-1.274-2.194-2.526-3.414-3.746c-1.219-1.219-2.47-2.356-3.743-3.411l104.087-104.087
	c1.975-1.973,5.183-1.973,7.155,0c0.954,0.954,1.479,2.229,1.479,3.603C423.545,114.027,423.02,115.289,422.062,116.248z"/>
<g>
</g>
<g>
</g>
<g>
</g>
<g>
</g>
<g>
</g>
<g>
</g>
<g>
</g>
<g>
</g>
<g>
</g>
<g>
</g>
<g>
</g>
<g>
</g>
<g>
</g>
<g>
</g>
<g>
</g>
</svg>
