<?xml version="1.0" encoding="iso-8859-1"?>
<!-- Generator: Adobe Illustrator 19.0.0, SVG Export Plug-In . SVG Version: 6.00 Build 0)  -->
<svg version="1.1" id="Layer_1" xmlns="http://www.w3.org/2000/svg" xmlns:xlink="http://www.w3.org/1999/xlink" x="0px" y="0px"
	 viewBox="0 0 512 512" style="enable-background:new 0 0 512 512;" xml:space="preserve">
<g>
	<g>
		<path d="M498.849,169.176c-1.349-3.253-4.523-5.375-8.046-5.375H264.708v-9.771h226.095c3.522,0,6.697-2.121,8.045-5.375
			c1.348-3.254,0.603-6.998-1.888-9.489c-27.573-27.573-64.231-42.757-103.223-42.757h-20.176
			c-31.166-24.17-69.416-38.195-108.853-40.001v-47.7c0-4.809-3.899-8.707-8.707-8.707c-4.809,0-8.707,3.899-8.707,8.707v47.7
			c-39.437,1.806-77.687,15.831-108.855,40.001h-20.176c-38.992,0-75.651,15.185-103.223,42.757c-2.49,2.49-3.236,6.236-1.888,9.489
			c1.348,3.254,4.523,5.375,8.045,5.375h226.097v9.771H21.198c-3.522,0-6.697,2.121-8.045,5.375s-0.603,6.998,1.888,9.489
			c27.573,27.573,64.231,42.756,103.223,42.756h20.176c31.168,24.17,69.418,38.196,108.854,40.002v27.665h-11.8
			c-4.809,0-8.707,3.899-8.707,8.707v48.762c0,4.809,3.899,8.708,8.707,8.708h11.799v148.027c0,4.809,3.899,8.707,8.707,8.707
			c4.809,0,8.707-3.899,8.707-8.707V355.265h11.8c4.809,0,8.707-3.899,8.707-8.708v-48.762c0-4.809-3.899-8.707-8.707-8.707h-11.8
			v-27.665c39.437-1.807,77.686-15.831,108.854-40.002h20.176c38.992,0,75.651-15.185,103.223-42.756
			C499.451,176.174,500.197,172.429,498.849,169.176z M256.001,73.618c30.836,0,60.24,7.818,86.371,22.79H169.629
			C195.76,81.437,225.164,73.618,256.001,73.618z M45.122,136.616c21.33-14.818,46.621-22.792,73.142-22.792h275.475
			c26.521,0,51.812,7.974,73.143,22.792H45.122z M267.801,306.503v31.347H244.2v-31.347H267.801z M256.001,244.214
			c-30.836,0-60.24-7.819-86.372-22.792h172.744C316.24,236.394,286.837,244.214,256.001,244.214z M393.738,204.007H118.263
			c-26.518,0-51.813-7.976-73.142-22.79H466.88C445.551,196.031,420.256,204.007,393.738,204.007z"/>
	</g>
</g>
<g>
</g>
<g>
</g>
<g>
</g>
<g>
</g>
<g>
</g>
<g>
</g>
<g>
</g>
<g>
</g>
<g>
</g>
<g>
</g>
<g>
</g>
<g>
</g>
<g>
</g>
<g>
</g>
<g>
</g>
</svg>
