<?xml version="1.0" encoding="iso-8859-1"?>
<!-- Generator: Adobe Illustrator 18.0.0, SVG Export Plug-In . SVG Version: 6.00 Build 0)  -->
<!DOCTYPE svg PUBLIC "-//W3C//DTD SVG 1.1//EN" "http://www.w3.org/Graphics/SVG/1.1/DTD/svg11.dtd">
<svg version="1.1" id="Capa_1" xmlns="http://www.w3.org/2000/svg" xmlns:xlink="http://www.w3.org/1999/xlink" x="0px" y="0px"
	 viewBox="0 0 326.573 326.573" style="enable-background:new 0 0 326.573 326.573;" xml:space="preserve">
<path d="M183.151,163.173L299.402,45.471c6.977,1.006,14.363-1.497,19.886-7.018c9.374-9.375,9.745-23.144,0.862-32.027
	c-8.886-8.885-22.653-8.513-32.028,0.861c-5.522,5.522-8.027,12.902-7.018,19.886L163.279,143.545L45.45,27.175
	c1.01-6.983-1.496-14.364-7.018-19.885C33.747,2.605,27.776,0.025,21.62,0.025c-5.683,0-11.087,2.274-15.217,6.403
	C1.95,10.882-0.313,16.719,0.035,22.864c0.322,5.714,2.891,11.251,7.23,15.591c4.676,4.675,10.638,7.25,16.79,7.25
	c1.047,0,2.082-0.075,3.103-0.225l116.248,117.693L4.502,300.369c-2.9,2.899-4.496,6.754-4.496,10.854
	c0,4.1,1.597,7.954,4.495,10.853c2.899,2.898,6.753,4.495,10.853,4.496h0.001c4.101,0,7.955-1.597,10.886-4.528l137.038-138.751
	l137.076,138.78c2.898,2.899,6.753,4.496,10.853,4.497c4.101,0,7.955-1.597,10.855-4.496c5.984-5.985,5.985-15.723-0.032-21.74
	L183.151,163.173z"/>
<g>
</g>
<g>
</g>
<g>
</g>
<g>
</g>
<g>
</g>
<g>
</g>
<g>
</g>
<g>
</g>
<g>
</g>
<g>
</g>
<g>
</g>
<g>
</g>
<g>
</g>
<g>
</g>
<g>
</g>
</svg>
