<?xml version="1.0" encoding="iso-8859-1"?>
<!-- Generator: Adobe Illustrator 19.0.0, SVG Export Plug-In . SVG Version: 6.00 Build 0)  -->
<svg version="1.1" id="Capa_1" xmlns="http://www.w3.org/2000/svg" xmlns:xlink="http://www.w3.org/1999/xlink" x="0px" y="0px"
	 viewBox="0 0 59.989 59.989" style="enable-background:new 0 0 59.989 59.989;" xml:space="preserve">
<path d="M49.162,3H49.15c0.003-0.055,0.011-0.111,0.011-0.166C49.162,1.112,47.853,0,45.828,0H14.495
	c-2.025,0-3.333,1.112-3.333,2.834c0,0.055,0.008,0.111,0.011,0.166h-0.678c-1.717,0-3,1.76-3,3.334V7
	c0,1.364,0.92,2.505,2.169,2.868c4.16,19.019,9.725,27.285,14.815,30.432c-0.323,7.084-1.86,13.027-4.572,17.689h-2.413
	c-0.552,0-1,0.447-1,1s0.448,1,1,1h3h20.062h2.938c0.552,0,1-0.447,1-1s-0.448-1-1-1h-2.35c-2.779-4.777-4.326-10.894-4.597-18.21
	c5.533-4.103,9.961-13.968,13.427-29.828C51.401,9.719,52.495,8.49,52.495,7V6.334C52.495,4.683,50.813,3,49.162,3z M13.162,2.834
	c0-0.206,0-0.834,1.333-0.834h31.333c1.333,0,1.333,0.628,1.333,0.834c0,0.056-0.004,0.111-0.011,0.166H13.173
	C13.166,2.945,13.162,2.89,13.162,2.834z M24.448,52.594l4.047,5.396h-6.282C23.092,56.327,23.835,54.524,24.448,52.594z
	 M32.494,57.989l4.091-5.455c0.617,1.953,1.366,3.776,2.254,5.455H32.494z M34.593,40.99c0.183,3.306,0.628,6.376,1.328,9.198
	c-0.081,0.058-0.163,0.117-0.226,0.202l-5.2,6.933l-5.2-6.933c-0.049-0.066-0.116-0.108-0.177-0.158
	c0.686-2.751,1.13-5.736,1.323-8.947c1.302,0.505,2.554,0.705,3.72,0.705c0.018,0,0.036-0.002,0.055-0.002
	c0.055,0.002,0.107,0.002,0.154,0.002c0.103,0,0.227-0.001,0.366-0.022c0.222-0.012,0.443-0.033,0.663-0.06
	c0.096-0.012,0.193-0.02,0.289-0.034c0.295-0.044,0.588-0.099,0.877-0.17c0.139-0.033,0.276-0.079,0.414-0.118
	c0.142-0.041,0.284-0.08,0.425-0.128c0.204-0.068,0.405-0.145,0.605-0.226c0.049-0.02,0.097-0.04,0.146-0.06
	C34.301,41.11,34.449,41.058,34.593,40.99z M34.973,38.422c0.893-1.109,1.75-2.361,2.463-3.588c0.277-0.478,0.115-1.089-0.362-1.366
	s-1.089-0.116-1.367,0.362c-0.777,1.337-1.553,2.425-2.273,3.318c0.412-1.874,0.777-4.471,1.033-8.077
	c0.039-0.551-0.375-1.029-0.927-1.068c-0.541-0.045-1.029,0.376-1.068,0.926c-0.535,7.524-1.588,10.293-2.096,10.948
	c-0.347-0.46-1.318-2.301-1.944-8.971c-0.052-0.55-0.534-0.957-1.089-0.902c-0.55,0.052-0.954,0.54-0.902,1.09
	c0.245,2.603,0.547,4.579,0.878,6.087c-1.284-1.598-2.724-3.825-3.904-6.575c-0.218-0.508-0.807-0.745-1.313-0.524
	c-0.508,0.218-0.743,0.806-0.525,1.313c1.229,2.866,2.943,5.594,4.62,7.566c-0.066-0.035-0.134-0.059-0.2-0.096
	c-0.03-0.017-0.063-0.024-0.094-0.037C18.422,34.64,13.967,19.976,11.737,10h5.767c0.028,1.65,0.118,3.731,0.264,5.106
	c0.054,0.514,0.488,0.895,0.993,0.895c0.035,0,0.071-0.002,0.107-0.006c0.549-0.059,0.947-0.551,0.888-1.1
	c-0.139-1.312-0.225-3.303-0.253-4.896h5.992c0.01,3.191,0.069,6.642,0.156,9.036c0.02,0.54,0.463,0.964,0.999,0.964
	c0.012,0,0.024,0,0.037-0.001c0.552-0.02,0.983-0.483,0.963-1.035c-0.087-2.373-0.145-5.796-0.155-8.964h5.996
	c-0.003,1.317-0.013,2.961-0.029,3.984c-0.008,0.553,0.433,1.007,0.985,1.016c0.005,0,0.01,0,0.016,0c0.545,0,0.991-0.438,1-0.984
	c0.016-1.031,0.025-2.69,0.029-4.016h5.981c-0.105,4.903-0.963,10.439-2.307,14.7c-0.166,0.526,0.126,1.088,0.653,1.255
	c0.1,0.031,0.201,0.046,0.301,0.046c0.424,0,0.818-0.272,0.953-0.699c1.401-4.441,2.294-10.207,2.4-15.302h4.447
	C44.514,25.377,40.173,34.889,34.973,38.422z M50.495,7c0,0.552-0.448,1-1,1h-39c-0.551,0-1-0.448-1-1V6.334
	c0-0.623,0.533-1.334,1-1.334h1.416h36.5h0.751c0.548,0,1.333,0.785,1.333,1.334V7z"/>
<g>
</g>
<g>
</g>
<g>
</g>
<g>
</g>
<g>
</g>
<g>
</g>
<g>
</g>
<g>
</g>
<g>
</g>
<g>
</g>
<g>
</g>
<g>
</g>
<g>
</g>
<g>
</g>
<g>
</g>
</svg>
